# xmcd
#
# Track frame offsets:
#	150
#	19593
#	38144
#	60394
#	80714
#	100456
#	117858
#	136890
#	153463
#	172991
#	194210
#	211862
#	231501
#	252365
#	273699
#	295879
#
# Disc length: 4246 seconds
#
# Revision: 0
# Processed by: cddbd v1.5.2PL0 Copyright (c) Steve Scherf et al.
# Submitted via: EasyCDDAExtractor 16.1.0.1
#
DISCID=ec109410
DTITLE=江南车载音乐 - 薛之谦CD2
DYEAR=1900
DGENRE=
TTITLE0=认真的雪
TTITLE1=黄色枫叶
TTITLE2=MEMORY
TTITLE3=传说
TTITLE4=你过得好吗
TTITLE5=倾城
TTITLE6=我们的世界
TTITLE7=我的雅典娜
TTITLE8=未完成的歌
TTITLE9=流星的眼泪
TTITLE10=爱我的人 谢谢你
TTITLE11=爱的期限
TTITLE12=红尘女子
TTITLE13=给我的爱人
TTITLE14=钗头凤
TTITLE15=马戏小丑
EXTD=
EXTT0=
EXTT1=
EXTT2=
EXTT3=
EXTT4=
EXTT5=
EXTT6=
EXTT7=
EXTT8=
EXTT9=
EXTT10=
EXTT11=
EXTT12=
EXTT13=
EXTT14=
EXTT15=
PLAYORDER=
